<svg xmlns="http://www.w3.org/2000/svg" style="margin:auto;background:rgba(241, 242, 243, 0);display:block;" width="338" height="244" preserveAspectRatio="xMidYMid">
    <style type="text/css">
      text {
        text-anchor: middle; font-size: 80px; opacity: 0;
      }
    </style>
    <g style="transform-origin:169px 122px;transform:scale(1)">
    <g transform="translate(169,122)">
      <g transform="translate(0,0)"><g class="path" style="transform-origin: -113.01px -7.084px; animation: 1s linear -0.5775s infinite normal forwards running static-5fafb2c9-1373-4447-a6b1-4ecf0fb5a265;"><path d="M14.14-56.88L14.14-6.13L41.09-6.13L41.09 0L6.60 0L6.60-56.88L14.14-56.88" fill="#1d0e0b" stroke="none" stroke-width="none" transform="translate(-136.85499572753906,21.35600028991699)" style="fill: rgb(29, 14, 11);"></path></g><g class="path" style="transform-origin: -71.015px 0.221001px; animation: 1s linear -0.495s infinite normal forwards running static-5fafb2c9-1373-4447-a6b1-4ecf0fb5a265;"><path d="M46.60-21.02L46.60-21.52L46.60-21.52Q46.60-27.73 49.04-32.70L49.04-32.70L49.04-32.70Q51.48-37.66 55.84-40.35L55.84-40.35L55.84-40.35Q60.20-43.05 65.78-43.05L65.78-43.05L65.78-43.05Q74.41-43.05 79.75-37.07L79.75-37.07L79.75-37.07Q85.08-31.09 85.08-21.17L85.08-21.17L85.08-20.66L85.08-20.66Q85.08-14.49 82.71-9.59L82.71-9.59L82.71-9.59Q80.35-4.69 75.96-1.95L75.96-1.95L75.96-1.95Q71.56 0.78 65.86 0.78L65.86 0.78L65.86 0.78Q57.27 0.78 51.93-5.20L51.93-5.20L51.93-5.20Q46.60-11.17 46.60-21.02L46.60-21.02zM53.87-20.66L53.87-20.66L53.87-20.66Q53.87-13.63 57.13-9.38L57.13-9.38L57.13-9.38Q60.39-5.12 65.86-5.12L65.86-5.12L65.86-5.12Q71.37-5.12 74.61-9.43L74.61-9.43L74.61-9.43Q77.85-13.75 77.85-21.52L77.85-21.52L77.85-21.52Q77.85-28.48 74.55-32.79L74.55-32.79L74.55-32.79Q71.25-37.11 65.78-37.11L65.78-37.11L65.78-37.11Q60.43-37.11 57.15-32.85L57.15-32.85L57.15-32.85Q53.87-28.59 53.87-20.66" fill="#1d0e0b" stroke="none" stroke-width="none" transform="translate(-136.85499572753906,21.35600028991699)" style="fill: rgb(216, 140, 81);"></path></g><g class="path" style="transform-origin: -26.485px 0.221001px; animation: 1s linear -0.4125s infinite normal forwards running static-5fafb2c9-1373-4447-a6b1-4ecf0fb5a265;"><path d="M127.81 0L120.23 0L120.23 0Q119.61-1.25 119.22-4.45L119.22-4.45L119.22-4.45Q114.18 0.78 107.19 0.78L107.19 0.78L107.19 0.78Q100.94 0.78 96.93-2.75L96.93-2.75L96.93-2.75Q92.93-6.29 92.93-11.72L92.93-11.72L92.93-11.72Q92.93-18.32 97.95-21.97L97.95-21.97L97.95-21.97Q102.97-25.63 112.07-25.63L112.07-25.63L119.10-25.63L119.10-28.95L119.10-28.95Q119.10-32.73 116.84-34.98L116.84-34.98L116.84-34.98Q114.57-37.23 110.16-37.23L110.16-37.23L110.16-37.23Q106.29-37.23 103.67-35.27L103.67-35.27L103.67-35.27Q101.05-33.32 101.05-30.55L101.05-30.55L93.79-30.55L93.79-30.55Q93.79-33.71 96.04-36.66L96.04-36.66L96.04-36.66Q98.28-39.61 102.13-41.33L102.13-41.33L102.13-41.33Q105.98-43.05 110.59-43.05L110.59-43.05L110.59-43.05Q117.89-43.05 122.03-39.39L122.03-39.39L122.03-39.39Q126.17-35.74 126.33-29.34L126.33-29.34L126.33-9.88L126.33-9.88Q126.33-4.06 127.81-0.63L127.81-0.63L127.81 0zM108.24-5.51L108.24-5.51L108.24-5.51Q111.64-5.51 114.69-7.27L114.69-7.27L114.69-7.27Q117.73-9.02 119.10-11.84L119.10-11.84L119.10-20.51L113.44-20.51L113.44-20.51Q100.16-20.51 100.16-12.73L100.16-12.73L100.16-12.73Q100.16-9.34 102.42-7.42L102.42-7.42L102.42-7.42Q104.69-5.51 108.24-5.51" fill="#1d0e0b" stroke="none" stroke-width="none" transform="translate(-136.85499572753906,21.35600028991699)" style="fill: rgb(29, 14, 11);"></path></g><g class="path" style="transform-origin: 16.875px -8.254px; animation: 1s linear -0.33s infinite normal forwards running static-5fafb2c9-1373-4447-a6b1-4ecf0fb5a265;"><path d="M135.90-20.94L135.90-21.48L135.90-21.48Q135.90-31.21 140.51-37.13L140.51-37.13L140.51-37.13Q145.12-43.05 152.58-43.05L152.58-43.05L152.58-43.05Q160-43.05 164.34-37.97L164.34-37.97L164.34-60L171.56-60L171.56 0L164.92 0L164.57-4.53L164.57-4.53Q160.23 0.78 152.50 0.78L152.50 0.78L152.50 0.78Q145.16 0.78 140.53-5.23L140.53-5.23L140.53-5.23Q135.90-11.25 135.90-20.94L135.90-20.94zM143.13-20.66L143.13-20.66L143.13-20.66Q143.13-13.48 146.09-9.41L146.09-9.41L146.09-9.41Q149.06-5.35 154.30-5.35L154.30-5.35L154.30-5.35Q161.17-5.35 164.34-11.52L164.34-11.52L164.34-30.94L164.34-30.94Q161.09-36.91 154.38-36.91L154.38-36.91L154.38-36.91Q149.06-36.91 146.09-32.81L146.09-32.81L146.09-32.81Q143.13-28.71 143.13-20.66" fill="#1d0e0b" stroke="none" stroke-width="none" transform="translate(-136.85499572753906,21.35600028991699)" style="fill: rgb(216, 140, 81);"></path></g><g class="path" style="transform-origin: 50.16px 0.221001px; animation: 1s linear -0.2475s infinite normal forwards running static-5fafb2c9-1373-4447-a6b1-4ecf0fb5a265;"><path d="M190.63-42.27L190.63 0L183.40 0L183.40-42.27L190.63-42.27" fill="#1d0e0b" stroke="none" stroke-width="none" transform="translate(-136.85499572753906,21.35600028991699)" style="fill: rgb(29, 14, 11);"></path></g><g class="path" style="transform-origin: 50.235px -32.164px; animation: 1s linear -0.165s infinite normal forwards running static-5fafb2c9-1373-4447-a6b1-4ecf0fb5a265;"><path d="M182.81-53.48L182.81-53.48L182.81-53.48Q182.81-55.23 183.89-56.45L183.89-56.45L183.89-56.45Q184.96-57.66 187.07-57.66L187.07-57.66L187.07-57.66Q189.18-57.66 190.27-56.45L190.27-56.45L190.27-56.45Q191.37-55.23 191.37-53.48L191.37-53.48L191.37-53.48Q191.37-51.72 190.27-50.55L190.27-50.55L190.27-50.55Q189.18-49.38 187.07-49.38L187.07-49.38L187.07-49.38Q184.96-49.38 183.89-50.55L183.89-50.55L183.89-50.55Q182.81-51.72 182.81-53.48" fill="#1d0e0b" stroke="none" stroke-width="none" transform="translate(-136.85499572753906,21.35600028991699)" style="fill: rgb(216, 140, 81);"></path></g><g class="path" style="transform-origin: 81.955px -0.168999px; animation: 1s linear -0.0825s infinite normal forwards running static-5fafb2c9-1373-4447-a6b1-4ecf0fb5a265;"><path d="M202.19-42.27L209.02-42.27L209.26-36.95L209.26-36.95Q214.10-43.05 221.91-43.05L221.91-43.05L221.91-43.05Q235.31-43.05 235.43-27.93L235.43-27.93L235.43 0L228.20 0L228.20-27.97L228.20-27.97Q228.16-32.54 226.11-34.73L226.11-34.73L226.11-34.73Q224.06-36.91 219.73-36.91L219.73-36.91L219.73-36.91Q216.21-36.91 213.55-35.04L213.55-35.04L213.55-35.04Q210.90-33.16 209.41-30.12L209.41-30.12L209.41 0L202.19 0L202.19-42.27" fill="#1d0e0b" stroke="none" stroke-width="none" transform="translate(-136.85499572753906,21.35600028991699)" style="fill: rgb(29, 14, 11);"></path></g><g class="path" style="transform-origin: 125.605px 8.151px; animation: 1s linear 0s infinite normal forwards running static-5fafb2c9-1373-4447-a6b1-4ecf0fb5a265;"><path d="M244.61-21.48L244.61-21.48L244.61-21.48Q244.61-31.37 249.18-37.21L249.18-37.21L249.18-37.21Q253.75-43.05 261.29-43.05L261.29-43.05L261.29-43.05Q269.02-43.05 273.36-37.58L273.36-37.58L273.71-42.27L280.31-42.27L280.31-1.02L280.31-1.02Q280.31 7.19 275.45 11.91L275.45 11.91L275.45 11.91Q270.59 16.64 262.38 16.64L262.38 16.64L262.38 16.64Q257.81 16.64 253.44 14.69L253.44 14.69L253.44 14.69Q249.06 12.73 246.76 9.34L246.76 9.34L250.51 5L250.51 5Q255.16 10.74 261.88 10.74L261.88 10.74L261.88 10.74Q267.15 10.74 270.10 7.77L270.10 7.77L270.10 7.77Q273.05 4.80 273.05-0.59L273.05-0.59L273.05-4.22L273.05-4.22Q268.71 0.78 261.21 0.78L261.21 0.78L261.21 0.78Q253.79 0.78 249.20-5.20L249.20-5.20L249.20-5.20Q244.61-11.17 244.61-21.48zM251.88-20.66L251.88-20.66L251.88-20.66Q251.88-13.52 254.80-9.43L254.80-9.43L254.80-9.43Q257.73-5.35 263.01-5.35L263.01-5.35L263.01-5.35Q269.84-5.35 273.05-11.56L273.05-11.56L273.05-30.86L273.05-30.86Q269.73-36.91 263.09-36.91L263.09-36.91L263.09-36.91Q257.81-36.91 254.84-32.81L254.84-32.81L254.84-32.81Q251.88-28.71 251.88-20.66" fill="#1d0e0b" stroke="none" stroke-width="none" transform="translate(-136.85499572753906,21.35600028991699)" style="fill: rgb(216, 140, 81);"></path></g></g>
    </g>
    </g>
    </svg>